# xmcd
#
# Track frame offsets:
#	150
#	18830
#	38102
#	59535
#	80717
#	97655
#	118175
#	135125
#	153460
#	170910
#
# Disc length: 2919 seconds
#
# Revision: 11
# Processed by: cddbd v1.5.2PL0 Copyright (c) Steve Scherf et al.
# Submitted via: EasyCDDAExtractor 15.3.0.1
#
DISCID=790b650a
DTITLE=La Ley - Uno
DYEAR=2000
DGENRE=Latin
TTITLE0=Eternidad
TTITLE1=Tierra
TTITLE2=Aqui
TTITLE3=Fuera De Mi
TTITLE4=Delirando
TTITLE5=Amor Y Fe
TTITLE6=Paraiso
TTITLE7=Ritual
TTITLE8=Verano Espacial
TTITLE9=Al Final
EXTD=YEAR: 2000 ID3G: 17\n
EXTT0=
EXTT1=
EXTT2=
EXTT3=
EXTT4=
EXTT5=
EXTT6=
EXTT7=
EXTT8=
EXTT9=
PLAYORDER=
